<svg version="1.1" id="Layer_1" xmlns="http://www.w3.org/2000/svg" xmlns:xlink="http://www.w3.org/1999/xlink" x="0px" y="0px"
	 width="100%" viewBox="0 0 1024 1024" enable-background="new 0 0 1024 1024" xml:space="preserve">
<path fill="#2489F2" opacity="1.000000" stroke="none" 
	d="
M778.471191,577.683472 
	C780.691956,587.676514 782.114746,597.366272 783.322632,607.092773 
	C783.663879,609.840698 783.142578,611.573242 780.048645,612.748474 
	C753.123291,622.975830 725.228088,628.116821 696.511902,627.824463 
	C667.165161,627.525696 639.242554,620.064270 612.270447,608.800720 
	C587.584717,598.491943 564.933289,584.346130 541.683594,571.337646 
	C511.066864,554.207092 478.430878,543.181580 443.539154,539.535950 
	C413.559082,536.403564 384.073669,540.160278 355.066040,547.999268 
	C324.719025,556.200195 296.352112,568.637268 270.987762,587.467224 
	C270.221771,588.035889 269.493591,588.828735 267.639679,588.485779 
	C268.173370,584.203308 268.551636,579.837036 269.279358,575.529846 
	C279.071716,517.572876 304.488861,466.198212 336.164948,417.518890 
	C364.110229,374.573029 396.661682,335.069122 428.359314,294.935852 
	C451.294922,265.896484 473.661469,236.441452 493.375854,205.087967 
	C503.133545,189.569427 511.911285,173.472015 519.916321,156.965836 
	C520.627258,155.499863 521.008118,153.791397 522.464966,152.780243 
	C524.235168,152.804001 524.560913,154.274033 525.095947,155.417953 
	C541.984070,191.524384 564.166504,224.343369 587.744141,256.290985 
	C619.409485,299.197388 654.141357,339.729095 685.635559,382.773163 
	C712.871033,419.996582 737.236450,458.893250 755.215271,501.503418 
	C765.525635,525.939087 773.547607,551.128723 778.471191,577.683472 
M362.523834,497.933533 
	C367.685455,502.991699 373.605255,505.230408 380.671509,502.487854 
	C387.188507,499.958466 390.801361,494.913269 391.408264,488.124908 
	C391.884491,482.798096 390.358734,477.587250 388.763275,472.502930 
	C385.572479,462.334717 382.990692,452.056946 382.701111,441.323486 
	C382.662750,439.901733 382.926605,438.205048 380.828156,437.704590 
	C380.425781,437.920044 379.860565,438.044250 379.585907,438.395569 
	C369.860382,450.837555 362.332672,464.474365 358.659729,479.885101 
	C357.228912,485.888397 357.643707,492.185242 362.523834,497.933533 
M396.860443,411.718658 
	C402.530548,413.565155 406.182312,411.186066 406.576630,405.101044 
	C406.887115,400.309570 406.527252,395.493652 407.652710,390.734528 
	C408.184418,388.486237 409.828033,386.377350 409.020996,383.089569 
	C401.746307,388.744019 396.393585,395.063812 393.650940,403.316467 
	C392.626221,406.399902 393.580505,409.226929 396.860443,411.718658 
z"/>
<path fill="#2489F2" opacity="1.000000" stroke="none" 
	d="
M705.547180,747.469849 
	C730.185547,738.875549 753.103210,727.540344 775.562256,714.773071 
	C754.700012,757.244202 726.936890,794.237915 689.705261,823.646545 
	C652.153320,853.308228 609.464111,871.527344 562.113281,878.146301 
	C427.246887,896.998596 321.781860,818.225525 274.955658,724.066650 
	C279.580048,723.006409 283.843048,724.596802 288.074066,725.429504 
	C315.253479,730.778564 340.613403,741.166565 365.296814,753.458191 
	C392.713104,767.110657 419.462524,782.128540 447.973145,793.545105 
	C472.982635,803.559631 498.757019,810.487915 525.503479,813.838806 
	C560.046082,818.166504 593.930786,814.976135 627.150696,804.839844 
	C643.786926,799.763672 659.317200,792.227356 674.585815,781.676331 
	C670.771912,781.506653 668.302917,782.674011 665.790710,783.500610 
	C631.535950,794.772461 596.381104,799.370178 560.425720,797.024902 
	C521.114441,794.460693 483.804596,783.824036 447.834717,768.068787 
	C418.841919,755.369568 391.006073,740.249146 362.136139,727.292847 
	C334.520416,714.899414 306.157532,704.666138 276.038300,700.772644 
	C242.262543,696.406433 208.925385,698.802185 176.671143,710.757751 
	C175.744354,711.101318 174.825607,711.610779 173.798187,710.863647 
	C173.526566,709.098145 175.146194,708.802612 176.103958,708.093567 
	C201.050125,689.626587 229.469299,679.811218 259.740814,674.696472 
	C307.463562,666.633118 352.744232,675.831909 396.769623,694.086792 
	C429.079376,707.483826 460.450439,723.045898 493.087830,735.684021 
	C518.926697,745.689514 545.316345,753.807861 572.708862,758.208862 
	C595.290466,761.836853 618.018311,762.633484 640.875305,760.927368 
	C662.925720,759.281372 684.312378,754.788269 705.547180,747.469849 
z"/>
<path fill="#2489F2" opacity="1.000000" stroke="none" 
	d="
M335.588318,613.532104 
	C356.805817,612.466492 377.276001,614.805969 397.481079,619.254639 
	C428.053009,625.985718 456.804047,637.899902 485.259308,650.658142 
	C516.244873,664.550903 547.139709,678.644592 579.950073,688.014221 
	C611.742493,697.093079 644.266235,700.307922 676.879639,697.331665 
	C753.930725,690.300171 816.307983,655.780334 863.017883,593.690491 
	C866.923767,588.498535 870.818420,583.300171 874.090271,577.666382 
	C874.643188,576.714355 875.088318,575.465576 876.592590,575.576660 
	C877.426941,576.459045 877.125366,577.393066 876.753235,578.355408 
	C863.176086,613.471069 843.869019,644.795471 816.252014,670.757629 
	C790.382874,695.076782 759.784729,711.121399 726.599976,722.741638 
	C701.495728,731.532288 675.632141,737.038452 649.136902,738.885620 
	C623.639099,740.663147 598.294067,739.012634 573.130920,733.893372 
	C538.913635,726.932129 506.979614,713.676514 475.284485,699.654846 
	C451.986267,689.347778 428.968353,678.397034 405.186493,669.206421 
	C372.692017,656.648743 339.217346,649.155579 304.196594,651.445007 
	C261.207550,654.255371 221.105270,666.202209 185.300644,690.926575 
	C183.074677,692.463562 181.548767,695.068970 178.305145,695.229858 
	C196.454498,669.978821 218.644150,649.235168 246.599823,635.150696 
	C274.398254,621.145569 304.077240,614.453552 335.588318,613.532104 
z"/>
<path fill="#2489F2" opacity="1.000000" stroke="none" 
	d="
M394.976746,561.652283 
	C424.146667,560.272339 452.244781,563.739258 479.838531,571.652161 
	C500.967316,577.711121 520.506897,587.338318 539.626709,597.928284 
	C566.736938,612.943848 593.791992,628.014465 623.381165,637.888733 
	C652.092285,647.469971 681.596741,650.572876 711.572205,648.452698 
	C734.947021,646.799377 757.590271,641.327698 779.023560,631.483887 
	C780.349182,630.875000 781.816406,630.574646 783.205078,630.134705 
	C786.067749,638.162598 785.015747,640.994446 778.059021,644.048706 
	C749.591675,656.546875 720.020630,664.101929 688.791443,665.487488 
	C645.721863,667.398438 605.291504,657.546448 566.238342,640.212341 
	C540.493530,628.785217 516.130188,614.517273 490.074188,603.741943 
	C454.922485,589.205139 418.257477,582.458191 380.376953,583.575745 
	C343.203247,584.672546 307.022217,591.782227 272.159454,605.054932 
	C270.876801,605.543335 269.558777,606.757202 266.950470,604.928955 
	C304.870575,575.723633 348.314758,564.758362 394.976746,561.652283 
z"/>
</svg>